<?xml version="1.0" encoding="UTF-8"?>
<svg width="24px" height="16px" viewBox="0 0 24 16" version="1.1" xmlns="http://www.w3.org/2000/svg" xmlns:xlink="http://www.w3.org/1999/xlink">
    <!-- Generator: Sketch 49.2 (51160) - http://www.bohemiancoding.com/sketch -->
    <title>Group 3</title>
    <desc>Created with Sketch.</desc>
    <defs></defs>
    <g id="Page-1" stroke="none" stroke-width="1" fill="none" fill-rule="evenodd">
        <g id="1.Login" transform="translate(-34.000000, -253.000000)">
            <g id="Group-3" transform="translate(34.000000, 249.000000)">
                <rect id="Rectangle-2" x="0" y="0" width="24" height="24"></rect>
                <g id="google-plus(1)" transform="translate(0.000000, 4.000000)" fill="#FFFFFF" fill-rule="nonzero">
                    <path d="M8.40664052,9.27414379 L12.1501176,9.27414379 C11.4930196,11.1319216 9.71335948,12.4638954 7.62985621,12.4485229 C5.10180392,12.4298562 3.01145098,10.4074771 2.91330719,7.8812549 C2.80810458,5.17333333 4.98060131,2.93678431 7.66556863,2.93678431 C8.89322876,2.93678431 10.0135425,3.40454902 10.8581438,4.17103268 C11.0581961,4.35262745 11.362719,4.35377778 11.5594771,4.16857516 L12.9344314,2.8745098 C13.1494379,2.67210458 13.1502222,2.33030065 12.9358431,2.12721569 C11.5963922,0.858248366 9.7995817,0.0672941176 7.81814379,0.0286013072 C3.59194771,-0.0539084967 0.0296470588,3.41113725 0.000209150327,7.63806536 C-0.0294901961,11.896732 3.41380392,15.3582745 7.66556863,15.3582745 C11.7544052,15.3582745 15.0946405,12.1567582 15.3183791,8.12386928 C15.3243399,8.07330719 15.3282614,6.36449673 15.3282614,6.36449673 L8.40664052,6.36449673 C8.1229281,6.36449673 7.89296732,6.59445752 7.89296732,6.87816993 L7.89296732,8.76047059 C7.89296732,9.04418301 8.12298039,9.27414379 8.40664052,9.27414379 Z" id="Shape"></path>
                    <path d="M21.6713203,6.53542484 L21.6713203,4.69631373 C21.6713203,4.44768627 21.4698039,4.24616993 21.2211765,4.24616993 L19.6732549,4.24616993 C19.4246275,4.24616993 19.2231111,4.44768627 19.2231111,4.69631373 L19.2231111,6.53542484 L17.384,6.53542484 C17.1353725,6.53542484 16.9338562,6.73694118 16.9338562,6.98556863 L16.9338562,8.5334902 C16.9338562,8.78211765 17.1353725,8.98363399 17.384,8.98363399 L19.2231111,8.98363399 L19.2231111,10.8227451 C19.2231111,11.0713725 19.4246275,11.2728889 19.6732549,11.2728889 L21.2211765,11.2728889 C21.4698039,11.2728889 21.6713203,11.0713725 21.6713203,10.8227451 L21.6713203,8.98363399 L23.5104314,8.98363399 C23.7590588,8.98363399 23.9605752,8.78211765 23.9605752,8.5334902 L23.9605752,6.98556863 C23.9605752,6.73694118 23.7590588,6.53542484 23.5104314,6.53542484 L21.6713203,6.53542484 Z" id="Shape"></path>
                </g>
            </g>
        </g>
    </g>
</svg>